<?xml version="1.0"?>
<svg xmlns="http://www.w3.org/2000/svg" xmlns:xlink="http://www.w3.org/1999/xlink" version="1.1" viewBox="0 0 252 252" width="64px" height="64px"><g fill="none" fill-rule="nonzero" stroke="none" stroke-width="1" stroke-linecap="butt" stroke-linejoin="miter" stroke-miterlimit="10" stroke-dasharray="" stroke-dashoffset="0" font-family="none" font-weight="none" font-size="none" text-anchor="none" style="mix-blend-mode: normal"><path d="M0,252v-252h252v252z" fill="none"/><g id="Layer_1"><g><g fill="#422e2d"><circle cx="64" cy="64" transform="scale(1.96875,1.96875)" r="50"/></g><g fill="#f2dabf"><path d="M126,230.34375c-57.4875,0 -104.34375,-46.85625 -104.34375,-104.34375c0,-57.4875 46.85625,-104.34375 104.34375,-104.34375c57.4875,0 104.34375,46.85625 104.34375,104.34375c0,57.4875 -46.85625,104.34375 -104.34375,104.34375zM126,33.46875c-50.99062,0 -92.53125,41.54063 -92.53125,92.53125c0,50.99063 41.54063,92.53125 92.53125,92.53125c50.99063,0 92.53125,-41.54062 92.53125,-92.53125c0,-50.99063 -41.54062,-92.53125 -92.53125,-92.53125z"/></g></g><g fill="#f2dabf"><path d="M170.29688,102.375h-88.59375c-3.34688,0 -5.90625,-2.55937 -5.90625,-5.90625c0,-3.34688 2.55937,-5.90625 5.90625,-5.90625h88.59375c3.34688,0 5.90625,2.55937 5.90625,5.90625c0,3.34688 -2.55937,5.90625 -5.90625,5.90625z"/></g><g fill="#f2dabf"><path d="M170.29688,131.90625h-88.59375c-3.34688,0 -5.90625,-2.55937 -5.90625,-5.90625c0,-3.34688 2.55937,-5.90625 5.90625,-5.90625h88.59375c3.34688,0 5.90625,2.55937 5.90625,5.90625c0,3.34688 -2.55937,5.90625 -5.90625,5.90625z"/></g><g fill="#f2dabf"><path d="M170.29688,161.4375h-88.59375c-3.34688,0 -5.90625,-2.55937 -5.90625,-5.90625c0,-3.34688 2.55937,-5.90625 5.90625,-5.90625h88.59375c3.34688,0 5.90625,2.55937 5.90625,5.90625c0,3.34688 -2.55937,5.90625 -5.90625,5.90625z"/></g></g></g></svg>
